<svg width="50" height="47" viewBox="0 0 50 47" fill="none" xmlns="http://www.w3.org/2000/svg">
<path fill-rule="evenodd" clip-rule="evenodd" d="M21.9868 45.5488C23.5808 47.3745 26.4192 47.3745 28.0132 45.5487L46.0577 24.8807C46.3858 24.5049 46.6275 24.0984 46.7904 23.678C48.7964 21.1782 50 17.9825 50 14.5001C50 6.49197 43.6354 9.81665e-05 35.7843 9.88528e-05C31.4714 9.92299e-05 27.6071 1.95917 25 5.05248C22.3929 1.95916 18.5286 8.12879e-05 14.2157 8.16649e-05C6.36458 8.23513e-05 -3.53416e-06 6.49195 -2.83407e-06 14.5001C-2.52962e-06 17.9825 1.20357 21.1782 3.20957 23.678C3.37248 24.0984 3.61416 24.5049 3.94227 24.8807L21.9868 45.5488Z" fill="white"/>
</svg>
