<svg width="44" height="50" viewBox="0 0 44 50" fill="none" xmlns="http://www.w3.org/2000/svg">
<path fill-rule="evenodd" clip-rule="evenodd" d="M18.8113 1.4953C20.4125 -0.498433 23.4475 -0.498436 25.0487 1.4953L39.9703 20.0749C42.366 22.3122 43.86 25.4763 43.86 28.984C43.86 35.7647 38.277 41.2616 31.39 41.2616C28.7026 41.2616 26.2138 40.4246 24.1778 39.001L29.5615 47.7828C29.97 48.4491 29.4905 49.3055 28.709 49.3055H15.151C14.3695 49.3055 13.89 48.4491 14.2985 47.7828L19.6822 39.001C17.6462 40.4246 15.1574 41.2616 12.47 41.2616C5.58301 41.2616 0 35.7647 0 28.984C0 25.4764 1.49403 22.3122 3.88972 20.0749L18.8113 1.4953Z" fill="white"/>
</svg>
