<svg width="48" height="50" viewBox="0 0 48 50" fill="none" xmlns="http://www.w3.org/2000/svg">
<path fill-rule="evenodd" clip-rule="evenodd" d="M37.3333 12.5C37.3333 13.8585 37.1022 15.1663 36.6747 16.3909C43.0858 17.2988 47.9999 22.4864 47.9999 28.75C47.9999 35.6536 42.0304 41.25 34.6666 41.25C31.3589 41.25 28.3326 40.1209 26.0022 38.2514L32.2987 48.4757C32.7091 49.1419 32.2297 50 31.4473 50H16.5526C15.7701 50 15.2908 49.1419 15.7011 48.4757L21.9975 38.2515C19.6672 40.121 16.6409 41.25 13.3333 41.25C5.96954 41.25 0 35.6536 0 28.75C0 22.4864 4.91418 17.2987 11.3253 16.3909C10.8978 15.1663 10.6667 13.8585 10.6667 12.5C10.6667 5.59644 16.6362 0 24 0C31.3638 0 37.3333 5.59644 37.3333 12.5Z" fill="white"/>
</svg>
