<svg width="370" height="320" viewBox="0 0 370 320" fill="none" xmlns="http://www.w3.org/2000/svg">
<rect width="180.889" height="160" rx="10" fill="#FF6663"/>
<rect x="185" width="182.944" height="160" rx="10" fill="#FEB144"/>
<rect x="185" y="160" width="182.944" height="160" rx="10" fill="#9EE09E"/>
<rect y="167.111" width="185" height="152.889" rx="10" fill="#87D5F8"/>
<mask id="path-5-inside-1_364_2" fill="white">
<path fill-rule="evenodd" clip-rule="evenodd" d="M199.389 10L360 10V147.555H337.637C326.166 116.052 269.557 91.5711 199.389 88.6192V10ZM170.611 88.6278V10L10 9.99999L10 147.555H32.5678C44.0276 116.082 100.538 91.6187 170.611 88.6278ZM33.06 172.444H10L9.99999 310H170.611V230.092C101.49 227.142 45.5664 203.299 33.06 172.444ZM199.389 230.101V310H360V172.444H337.145C324.626 203.329 268.604 227.189 199.389 230.101ZM370 172.444V147.555V10C370 4.47715 365.523 0 360 0L199.389 0L170.611 0L10 0C4.47715 0 0 4.47715 0 9.99999L0 147.555L0 172.444L0 310C0 315.523 4.47715 320 9.99999 320H170.611H199.389H360C365.523 320 370 315.523 370 310V172.444Z"/>
</mask>
<path fill-rule="evenodd" clip-rule="evenodd" d="M199.389 10L360 10V147.555H337.637C326.166 116.052 269.557 91.5711 199.389 88.6192V10ZM170.611 88.6278V10L10 9.99999L10 147.555H32.5678C44.0276 116.082 100.538 91.6187 170.611 88.6278ZM33.06 172.444H10L9.99999 310H170.611V230.092C101.49 227.142 45.5664 203.299 33.06 172.444ZM199.389 230.101V310H360V172.444H337.145C324.626 203.329 268.604 227.189 199.389 230.101ZM370 172.444V147.555V10C370 4.47715 365.523 0 360 0L199.389 0L170.611 0L10 0C4.47715 0 0 4.47715 0 9.99999L0 147.555L0 172.444L0 310C0 315.523 4.47715 320 9.99999 320H170.611H199.389H360C365.523 320 370 315.523 370 310V172.444Z" fill="#F6F6F6"/>
<path d="M360 10H362V8H360V10ZM199.389 10V8H197.389V10H199.389ZM360 147.555V149.555H362V147.555H360ZM337.637 147.555L335.757 148.24L336.237 149.555H337.637V147.555ZM199.389 88.6192H197.389V90.5368L199.305 90.6174L199.389 88.6192ZM170.611 10H172.611V8H170.611V10ZM170.611 88.6278L170.696 90.626L172.611 90.5443V88.6278H170.611ZM10 9.99999V7.99999H8V9.99999H10ZM10 147.555H8V149.555H10V147.555ZM32.5678 147.555V149.555H33.968L34.4471 148.24L32.5678 147.555ZM33.06 172.444L34.9135 171.693L34.4074 170.444H33.06V172.444ZM10 172.444V170.444H8V172.444H10ZM9.99999 310H7.99999V312H9.99999V310ZM170.611 310V312H172.611V310H170.611ZM170.611 230.092H172.611V228.176L170.696 228.094L170.611 230.092ZM199.389 230.101L199.305 228.103L197.389 228.183V230.101H199.389ZM199.389 310H197.389V312H199.389V310ZM360 310V312H362V310H360ZM360 172.444H362V170.444H360V172.444ZM337.145 172.444V170.444H335.797L335.291 171.693L337.145 172.444ZM0 172.444H-2H0ZM0 310H2H0ZM360 8L199.389 8V12L360 12V8ZM362 147.555V10H358V147.555H362ZM337.637 149.555H360V145.555H337.637V149.555ZM199.305 90.6174C234.197 92.0853 265.645 98.9052 289.737 109.219C313.922 119.573 330.307 133.272 335.757 148.24L339.516 146.871C333.495 130.335 315.84 116.042 291.311 105.542C266.69 95.0014 234.749 88.105 199.473 86.6209L199.305 90.6174ZM197.389 10V88.6192H201.389V10H197.389ZM168.611 10V88.6278H172.611V10H168.611ZM10 12L170.611 12V8L10 7.99999V12ZM12 147.555L12 9.99999H8L8 147.555H12ZM32.5678 145.555H10V149.555H32.5678V145.555ZM34.4471 148.24C39.8917 133.287 56.2501 119.599 80.3973 109.249C104.452 98.9385 135.852 92.1133 170.696 90.626L170.526 86.6296C135.297 88.1333 103.405 95.0353 78.8215 105.573C54.3303 116.07 36.7036 130.351 30.6885 146.871L34.4471 148.24ZM33.06 170.444H10V174.444H33.06V170.444ZM8 172.444L7.99999 310H12L12 172.444H8ZM9.99999 312H170.611V308H9.99999V312ZM172.611 310V230.092H168.611V310H172.611ZM170.696 228.094C136.326 226.627 105.306 219.966 81.3815 209.889C57.37 199.776 40.8671 186.381 34.9135 171.693L31.2065 173.196C37.7593 189.362 55.4715 203.316 79.8288 213.576C104.273 223.871 135.776 230.607 170.526 232.09L170.696 228.094ZM197.389 230.101V310H201.389V230.101H197.389ZM199.389 312H360V308H199.389V312ZM362 310V172.444H358V310H362ZM360 170.444H337.145V174.444H360V170.444ZM335.291 171.693C329.332 186.396 312.802 199.802 288.752 209.919C264.79 219.999 233.722 226.655 199.305 228.103L199.473 232.099C234.271 230.635 265.822 223.905 290.303 213.606C314.698 203.344 332.439 189.378 338.998 173.196L335.291 171.693ZM368 147.555V172.444H372V147.555H368ZM368 10V147.555H372V10H368ZM360 2C364.418 2 368 5.58172 368 10H372C372 3.37258 366.627 -2 360 -2V2ZM199.389 2L360 2V-2L199.389 -2V2ZM170.611 2L199.389 2V-2L170.611 -2V2ZM10 2L170.611 2V-2L10 -2V2ZM2 9.99999C2 5.58172 5.58172 2 10 2V-2C3.37259 -2 -2 3.37257 -2 9.99999H2ZM2 147.555L2 9.99999H-2L-2 147.555H2ZM2 172.444L2 147.555H-2L-2 172.444H2ZM2 310L2 172.444H-2L-2 310H2ZM9.99999 318C5.58172 318 2 314.418 2 310H-2C-2 316.627 3.37258 322 9.99999 322V318ZM170.611 318H9.99999V322H170.611V318ZM199.389 318H170.611V322H199.389V318ZM360 318H199.389V322H360V318ZM368 310C368 314.418 364.418 318 360 318V322C366.627 322 372 316.627 372 310H368ZM368 172.444V310H372V172.444H368Z" fill="#23160F" mask="url(#path-5-inside-1_364_2)"/>
<rect x="1" y="1" width="368" height="318" rx="9" stroke="#F6F6F6" stroke-width="2"/>
<mask id="path-8-outside-2_364_2" maskUnits="userSpaceOnUse" x="103.65" y="118.743" width="162" height="65" fill="black">
<rect fill="white" x="103.65" y="118.743" width="162" height="65"/>
<path d="M125.312 180.583C122.792 180.583 120.384 180.079 118.088 179.071C115.792 178.063 113.776 176.635 112.04 174.787C110.36 172.939 109.016 170.783 108.008 168.319C107.056 165.799 106.58 163.055 106.58 160.087C106.58 157.175 107.056 154.487 108.008 152.023C109.016 149.559 110.36 147.431 112.04 145.639C113.776 143.791 115.792 142.363 118.088 141.355C120.384 140.347 122.792 139.843 125.312 139.843C128.056 139.843 130.52 140.347 132.704 141.355C134.944 142.363 136.848 143.791 138.416 145.639C140.04 147.431 141.272 149.587 142.112 152.107C142.952 154.571 143.372 157.259 143.372 160.171C143.428 163.139 143.008 165.855 142.112 168.319C141.272 170.783 140.068 172.939 138.5 174.787C136.932 176.635 135.028 178.063 132.788 179.071C130.604 180.079 128.112 180.583 125.312 180.583ZM126.404 173.443C128.756 173.443 130.856 172.883 132.704 171.763C134.608 170.643 136.092 169.103 137.156 167.143C138.276 165.127 138.836 162.831 138.836 160.255C138.836 157.623 138.276 155.327 137.156 153.367C136.092 151.351 134.608 149.783 132.704 148.663C130.856 147.543 128.756 146.983 126.404 146.983C124.052 146.983 121.924 147.543 120.02 148.663C118.116 149.783 116.604 151.351 115.484 153.367C114.42 155.327 113.888 157.623 113.888 160.255C113.888 162.831 114.42 165.127 115.484 167.143C116.604 169.103 118.116 170.643 120.02 171.763C121.98 172.883 124.108 173.443 126.404 173.443ZM142.868 180.583C141.636 180.583 140.74 180.359 140.18 179.911C139.62 179.463 139.284 178.707 139.172 177.643V125.059C139.172 124.219 139.228 123.519 139.34 122.959C139.508 122.399 139.844 121.979 140.348 121.699C140.908 121.363 141.72 121.195 142.784 121.195C143.848 121.195 144.632 121.363 145.136 121.699C145.696 121.979 146.06 122.399 146.228 122.959C146.396 123.519 146.48 124.191 146.48 124.975V176.719C146.48 177.503 146.396 178.203 146.228 178.819C146.06 179.379 145.724 179.799 145.22 180.079C144.716 180.415 143.932 180.583 142.868 180.583Z"/>
<path d="M174.797 181.087C172.053 181.087 169.421 180.555 166.901 179.491C164.437 178.427 162.225 176.971 160.265 175.123C158.305 173.219 156.765 171.007 155.645 168.487C154.525 165.967 153.965 163.223 153.965 160.255C153.965 157.343 154.497 154.655 155.561 152.191C156.625 149.671 158.109 147.459 160.013 145.555C161.917 143.651 164.101 142.167 166.565 141.103C169.085 139.983 171.773 139.423 174.629 139.423C178.493 139.423 181.965 140.347 185.045 142.195C188.181 143.987 190.673 146.451 192.521 149.587C194.369 152.723 195.293 156.251 195.293 160.171C195.293 163.251 194.733 166.079 193.613 168.655C192.493 171.175 190.981 173.359 189.077 175.207C187.173 177.055 184.989 178.511 182.525 179.575C180.061 180.583 177.485 181.087 174.797 181.087ZM174.629 173.779C176.981 173.779 179.165 173.191 181.181 172.015C183.197 170.839 184.821 169.215 186.053 167.143C187.285 165.071 187.901 162.719 187.901 160.087C187.901 157.455 187.313 155.131 186.137 153.115C185.017 151.099 183.449 149.531 181.433 148.411C179.417 147.291 177.121 146.731 174.545 146.731C172.081 146.731 169.841 147.319 167.825 148.495C165.865 149.671 164.269 151.267 163.037 153.283C161.861 155.299 161.273 157.595 161.273 160.171C161.273 162.859 161.889 165.239 163.121 167.311C164.353 169.327 165.977 170.923 167.993 172.099C170.065 173.219 172.277 173.779 174.629 173.779Z"/>
<path d="M221.326 180.583C218.694 180.583 216.454 180.331 214.606 179.827C212.814 179.323 211.33 178.539 210.154 177.475C208.978 176.411 208.138 175.039 207.634 173.359C207.13 171.623 206.878 169.495 206.878 166.975V129.847C206.878 129.063 206.962 128.391 207.13 127.831C207.298 127.271 207.634 126.851 208.138 126.571C208.642 126.235 209.426 126.067 210.49 126.067C211.554 126.067 212.366 126.235 212.926 126.571C213.486 126.851 213.85 127.271 214.018 127.831C214.186 128.335 214.27 128.979 214.27 129.763V166.975C214.27 168.431 214.382 169.607 214.606 170.503C214.886 171.343 215.278 171.987 215.782 172.435C216.342 172.883 217.07 173.163 217.966 173.275C218.862 173.387 219.954 173.443 221.242 173.443C222.138 173.443 222.866 173.527 223.426 173.695C223.986 173.863 224.406 174.199 224.686 174.703C224.966 175.207 225.106 175.963 225.106 176.971C225.106 178.035 224.938 178.847 224.602 179.407C224.322 179.911 223.874 180.219 223.258 180.331C222.698 180.499 222.054 180.583 221.326 180.583ZM202.51 140.851L210.574 140.935L222.25 140.767C223.034 140.767 223.706 140.851 224.266 141.019C224.826 141.131 225.246 141.467 225.526 142.027C225.862 142.531 226.03 143.315 226.03 144.379C226.03 145.443 225.89 146.255 225.61 146.815C225.33 147.319 224.91 147.655 224.35 147.823C223.79 147.991 223.118 148.075 222.334 148.075L210.826 147.907L202.342 147.991C201.166 147.991 200.354 147.711 199.906 147.151C199.514 146.591 199.318 145.667 199.318 144.379C199.318 143.147 199.57 142.251 200.074 141.691C200.578 141.131 201.39 140.851 202.51 140.851Z"/>
<path d="M247.28 181.003C245.936 181.003 244.536 180.863 243.08 180.583C241.624 180.303 240.196 179.911 238.796 179.407C237.452 178.847 236.248 178.203 235.184 177.475C234.176 176.747 233.42 175.935 232.916 175.039C232.636 174.479 232.468 173.975 232.412 173.527C232.356 173.023 232.44 172.547 232.664 172.099C232.888 171.651 233.224 171.203 233.672 170.755C234.232 170.083 234.792 169.775 235.352 169.831C235.912 169.831 236.612 170.195 237.452 170.923C238.068 171.315 238.796 171.763 239.636 172.267C240.476 172.715 241.344 173.135 242.24 173.527C243.136 173.863 244.032 174.171 244.928 174.451C245.88 174.675 246.804 174.787 247.7 174.787C250.276 174.787 252.348 174.311 253.916 173.359C255.484 172.351 256.268 171.035 256.268 169.411C256.268 168.459 256.072 167.647 255.68 166.975C255.288 166.303 254.756 165.743 254.084 165.295C253.412 164.791 252.656 164.371 251.816 164.035C250.976 163.699 250.024 163.391 248.96 163.111C247.952 162.775 246.944 162.467 245.936 162.187C244.424 161.795 242.94 161.347 241.484 160.843C240.028 160.339 238.712 159.695 237.536 158.911C236.36 158.071 235.408 157.035 234.68 155.803C233.952 154.515 233.588 152.891 233.588 150.931C233.588 148.635 234.176 146.647 235.352 144.967C236.528 143.287 238.18 141.999 240.308 141.103C242.436 140.151 244.928 139.675 247.784 139.675C249.016 139.675 250.164 139.759 251.228 139.927C252.292 140.095 253.3 140.375 254.252 140.767C255.26 141.103 256.212 141.523 257.108 142.027C258.004 142.475 258.872 143.035 259.712 143.707C260.72 144.379 261.252 145.107 261.308 145.891C261.364 146.675 261.056 147.487 260.384 148.327C259.88 149.055 259.32 149.531 258.704 149.755C258.088 149.923 257.472 149.755 256.856 149.251C255.96 148.579 255.008 147.991 254 147.487C252.992 146.983 251.956 146.563 250.892 146.227C249.828 145.891 248.736 145.723 247.616 145.723C246.216 145.723 244.956 145.947 243.836 146.395C242.772 146.787 241.932 147.403 241.316 148.243C240.756 149.027 240.476 149.923 240.476 150.931C240.476 151.827 240.7 152.555 241.148 153.115C241.652 153.675 242.268 154.151 242.996 154.543C243.78 154.935 244.676 155.299 245.684 155.635C246.748 155.915 247.84 156.195 248.96 156.475C250.584 156.867 252.236 157.343 253.916 157.903C255.652 158.407 257.192 159.107 258.536 160.003C259.936 160.843 261.056 161.991 261.896 163.447C262.792 164.847 263.24 166.723 263.24 169.075C263.24 172.771 261.784 175.683 258.872 177.811C255.96 179.939 252.096 181.003 247.28 181.003Z"/>
</mask>
<path d="M125.312 180.583C122.792 180.583 120.384 180.079 118.088 179.071C115.792 178.063 113.776 176.635 112.04 174.787C110.36 172.939 109.016 170.783 108.008 168.319C107.056 165.799 106.58 163.055 106.58 160.087C106.58 157.175 107.056 154.487 108.008 152.023C109.016 149.559 110.36 147.431 112.04 145.639C113.776 143.791 115.792 142.363 118.088 141.355C120.384 140.347 122.792 139.843 125.312 139.843C128.056 139.843 130.52 140.347 132.704 141.355C134.944 142.363 136.848 143.791 138.416 145.639C140.04 147.431 141.272 149.587 142.112 152.107C142.952 154.571 143.372 157.259 143.372 160.171C143.428 163.139 143.008 165.855 142.112 168.319C141.272 170.783 140.068 172.939 138.5 174.787C136.932 176.635 135.028 178.063 132.788 179.071C130.604 180.079 128.112 180.583 125.312 180.583ZM126.404 173.443C128.756 173.443 130.856 172.883 132.704 171.763C134.608 170.643 136.092 169.103 137.156 167.143C138.276 165.127 138.836 162.831 138.836 160.255C138.836 157.623 138.276 155.327 137.156 153.367C136.092 151.351 134.608 149.783 132.704 148.663C130.856 147.543 128.756 146.983 126.404 146.983C124.052 146.983 121.924 147.543 120.02 148.663C118.116 149.783 116.604 151.351 115.484 153.367C114.42 155.327 113.888 157.623 113.888 160.255C113.888 162.831 114.42 165.127 115.484 167.143C116.604 169.103 118.116 170.643 120.02 171.763C121.98 172.883 124.108 173.443 126.404 173.443ZM142.868 180.583C141.636 180.583 140.74 180.359 140.18 179.911C139.62 179.463 139.284 178.707 139.172 177.643V125.059C139.172 124.219 139.228 123.519 139.34 122.959C139.508 122.399 139.844 121.979 140.348 121.699C140.908 121.363 141.72 121.195 142.784 121.195C143.848 121.195 144.632 121.363 145.136 121.699C145.696 121.979 146.06 122.399 146.228 122.959C146.396 123.519 146.48 124.191 146.48 124.975V176.719C146.48 177.503 146.396 178.203 146.228 178.819C146.06 179.379 145.724 179.799 145.22 180.079C144.716 180.415 143.932 180.583 142.868 180.583Z" fill="#FF6663"/>
<path d="M174.797 181.087C172.053 181.087 169.421 180.555 166.901 179.491C164.437 178.427 162.225 176.971 160.265 175.123C158.305 173.219 156.765 171.007 155.645 168.487C154.525 165.967 153.965 163.223 153.965 160.255C153.965 157.343 154.497 154.655 155.561 152.191C156.625 149.671 158.109 147.459 160.013 145.555C161.917 143.651 164.101 142.167 166.565 141.103C169.085 139.983 171.773 139.423 174.629 139.423C178.493 139.423 181.965 140.347 185.045 142.195C188.181 143.987 190.673 146.451 192.521 149.587C194.369 152.723 195.293 156.251 195.293 160.171C195.293 163.251 194.733 166.079 193.613 168.655C192.493 171.175 190.981 173.359 189.077 175.207C187.173 177.055 184.989 178.511 182.525 179.575C180.061 180.583 177.485 181.087 174.797 181.087ZM174.629 173.779C176.981 173.779 179.165 173.191 181.181 172.015C183.197 170.839 184.821 169.215 186.053 167.143C187.285 165.071 187.901 162.719 187.901 160.087C187.901 157.455 187.313 155.131 186.137 153.115C185.017 151.099 183.449 149.531 181.433 148.411C179.417 147.291 177.121 146.731 174.545 146.731C172.081 146.731 169.841 147.319 167.825 148.495C165.865 149.671 164.269 151.267 163.037 153.283C161.861 155.299 161.273 157.595 161.273 160.171C161.273 162.859 161.889 165.239 163.121 167.311C164.353 169.327 165.977 170.923 167.993 172.099C170.065 173.219 172.277 173.779 174.629 173.779Z" fill="#FEB144"/>
<path d="M221.326 180.583C218.694 180.583 216.454 180.331 214.606 179.827C212.814 179.323 211.33 178.539 210.154 177.475C208.978 176.411 208.138 175.039 207.634 173.359C207.13 171.623 206.878 169.495 206.878 166.975V129.847C206.878 129.063 206.962 128.391 207.13 127.831C207.298 127.271 207.634 126.851 208.138 126.571C208.642 126.235 209.426 126.067 210.49 126.067C211.554 126.067 212.366 126.235 212.926 126.571C213.486 126.851 213.85 127.271 214.018 127.831C214.186 128.335 214.27 128.979 214.27 129.763V166.975C214.27 168.431 214.382 169.607 214.606 170.503C214.886 171.343 215.278 171.987 215.782 172.435C216.342 172.883 217.07 173.163 217.966 173.275C218.862 173.387 219.954 173.443 221.242 173.443C222.138 173.443 222.866 173.527 223.426 173.695C223.986 173.863 224.406 174.199 224.686 174.703C224.966 175.207 225.106 175.963 225.106 176.971C225.106 178.035 224.938 178.847 224.602 179.407C224.322 179.911 223.874 180.219 223.258 180.331C222.698 180.499 222.054 180.583 221.326 180.583ZM202.51 140.851L210.574 140.935L222.25 140.767C223.034 140.767 223.706 140.851 224.266 141.019C224.826 141.131 225.246 141.467 225.526 142.027C225.862 142.531 226.03 143.315 226.03 144.379C226.03 145.443 225.89 146.255 225.61 146.815C225.33 147.319 224.91 147.655 224.35 147.823C223.79 147.991 223.118 148.075 222.334 148.075L210.826 147.907L202.342 147.991C201.166 147.991 200.354 147.711 199.906 147.151C199.514 146.591 199.318 145.667 199.318 144.379C199.318 143.147 199.57 142.251 200.074 141.691C200.578 141.131 201.39 140.851 202.51 140.851Z" fill="#87D5F8"/>
<path d="M247.28 181.003C245.936 181.003 244.536 180.863 243.08 180.583C241.624 180.303 240.196 179.911 238.796 179.407C237.452 178.847 236.248 178.203 235.184 177.475C234.176 176.747 233.42 175.935 232.916 175.039C232.636 174.479 232.468 173.975 232.412 173.527C232.356 173.023 232.44 172.547 232.664 172.099C232.888 171.651 233.224 171.203 233.672 170.755C234.232 170.083 234.792 169.775 235.352 169.831C235.912 169.831 236.612 170.195 237.452 170.923C238.068 171.315 238.796 171.763 239.636 172.267C240.476 172.715 241.344 173.135 242.24 173.527C243.136 173.863 244.032 174.171 244.928 174.451C245.88 174.675 246.804 174.787 247.7 174.787C250.276 174.787 252.348 174.311 253.916 173.359C255.484 172.351 256.268 171.035 256.268 169.411C256.268 168.459 256.072 167.647 255.68 166.975C255.288 166.303 254.756 165.743 254.084 165.295C253.412 164.791 252.656 164.371 251.816 164.035C250.976 163.699 250.024 163.391 248.96 163.111C247.952 162.775 246.944 162.467 245.936 162.187C244.424 161.795 242.94 161.347 241.484 160.843C240.028 160.339 238.712 159.695 237.536 158.911C236.36 158.071 235.408 157.035 234.68 155.803C233.952 154.515 233.588 152.891 233.588 150.931C233.588 148.635 234.176 146.647 235.352 144.967C236.528 143.287 238.18 141.999 240.308 141.103C242.436 140.151 244.928 139.675 247.784 139.675C249.016 139.675 250.164 139.759 251.228 139.927C252.292 140.095 253.3 140.375 254.252 140.767C255.26 141.103 256.212 141.523 257.108 142.027C258.004 142.475 258.872 143.035 259.712 143.707C260.72 144.379 261.252 145.107 261.308 145.891C261.364 146.675 261.056 147.487 260.384 148.327C259.88 149.055 259.32 149.531 258.704 149.755C258.088 149.923 257.472 149.755 256.856 149.251C255.96 148.579 255.008 147.991 254 147.487C252.992 146.983 251.956 146.563 250.892 146.227C249.828 145.891 248.736 145.723 247.616 145.723C246.216 145.723 244.956 145.947 243.836 146.395C242.772 146.787 241.932 147.403 241.316 148.243C240.756 149.027 240.476 149.923 240.476 150.931C240.476 151.827 240.7 152.555 241.148 153.115C241.652 153.675 242.268 154.151 242.996 154.543C243.78 154.935 244.676 155.299 245.684 155.635C246.748 155.915 247.84 156.195 248.96 156.475C250.584 156.867 252.236 157.343 253.916 157.903C255.652 158.407 257.192 159.107 258.536 160.003C259.936 160.843 261.056 161.991 261.896 163.447C262.792 164.847 263.24 166.723 263.24 169.075C263.24 172.771 261.784 175.683 258.872 177.811C255.96 179.939 252.096 181.003 247.28 181.003Z" fill="#9EE09E"/>
<path d="M118.088 179.071L117.284 180.902L118.088 179.071ZM112.04 174.787L110.56 176.132L110.571 176.144L110.582 176.156L112.04 174.787ZM108.008 168.319L106.137 169.026L106.147 169.051L106.157 169.076L108.008 168.319ZM108.008 152.023L106.157 151.266L106.149 151.284L106.142 151.302L108.008 152.023ZM112.04 145.639L110.582 144.27L110.581 144.271L112.04 145.639ZM118.088 141.355L117.284 139.524L118.088 141.355ZM132.704 141.355L131.866 143.171L131.875 143.175L131.883 143.179L132.704 141.355ZM138.416 145.639L136.891 146.933L136.912 146.958L136.934 146.982L138.416 145.639ZM142.112 152.107L140.215 152.739L140.219 152.752L142.112 152.107ZM143.372 160.171H141.372V160.19L141.372 160.209L143.372 160.171ZM142.112 168.319L140.232 167.635L140.226 167.654L140.219 167.674L142.112 168.319ZM132.788 179.071L131.967 177.247L131.959 177.251L131.95 177.255L132.788 179.071ZM132.704 171.763L131.69 170.039L131.679 170.046L131.667 170.053L132.704 171.763ZM137.156 167.143L135.408 166.172L135.403 166.18L135.398 166.189L137.156 167.143ZM137.156 153.367L135.387 154.3L135.403 154.33L135.42 154.359L137.156 153.367ZM132.704 148.663L131.667 150.373L131.679 150.38L131.69 150.387L132.704 148.663ZM120.02 148.663L121.034 150.387H121.034L120.02 148.663ZM115.484 153.367L113.736 152.396L113.731 152.404L113.726 152.413L115.484 153.367ZM115.484 167.143L113.715 168.076L113.731 168.106L113.748 168.135L115.484 167.143ZM120.02 171.763L119.006 173.487L119.017 173.493L119.028 173.499L120.02 171.763ZM140.18 179.911L141.429 178.349H141.429L140.18 179.911ZM139.172 177.643H137.172V177.748L137.183 177.852L139.172 177.643ZM139.34 122.959L137.424 122.384L137.397 122.474L137.379 122.567L139.34 122.959ZM140.348 121.699L141.319 123.447L141.348 123.431L141.377 123.414L140.348 121.699ZM145.136 121.699L144.027 123.363L144.13 123.432L144.242 123.488L145.136 121.699ZM146.228 122.959L148.144 122.384L146.228 122.959ZM146.228 178.819L148.144 179.394L148.151 179.369L148.158 179.345L146.228 178.819ZM145.22 180.079L144.249 178.331L144.178 178.37L144.111 178.415L145.22 180.079ZM125.312 178.583C123.067 178.583 120.933 178.136 118.892 177.24L117.284 180.902C119.835 182.022 122.517 182.583 125.312 182.583V178.583ZM118.892 177.24C116.846 176.341 115.051 175.071 113.498 173.418L110.582 176.156C112.501 178.198 114.738 179.785 117.284 180.902L118.892 177.24ZM113.52 173.442C112.007 171.778 110.785 169.824 109.859 167.562L106.157 169.076C107.248 171.742 108.713 174.1 110.56 176.132L113.52 173.442ZM109.879 167.612C109.021 165.34 108.58 162.838 108.58 160.087H104.58C104.58 163.272 105.091 166.258 106.137 169.026L109.879 167.612ZM108.58 160.087C108.58 157.396 109.019 154.955 109.874 152.744L106.142 151.302C105.093 154.018 104.58 156.954 104.58 160.087H108.58ZM109.859 152.78C110.783 150.523 111.999 148.606 113.499 147.007L110.581 144.271C108.721 146.255 107.25 148.595 106.157 151.266L109.859 152.78ZM113.498 147.008C115.051 145.354 116.846 144.085 118.892 143.186L117.284 139.524C114.738 140.641 112.501 142.227 110.582 144.27L113.498 147.008ZM118.892 143.186C120.933 142.29 123.067 141.843 125.312 141.843V137.843C122.517 137.843 119.835 138.404 117.284 139.524L118.892 143.186ZM125.312 141.843C127.807 141.843 129.979 142.3 131.866 143.171L133.542 139.539C131.061 138.394 128.305 137.843 125.312 137.843V141.843ZM131.883 143.179C133.856 144.066 135.518 145.315 136.891 146.933L139.941 144.345C138.178 142.267 136.032 140.659 133.525 139.531L131.883 143.179ZM136.934 146.982C138.354 148.549 139.454 150.456 140.215 152.739L144.009 151.474C143.09 148.717 141.726 146.313 139.898 144.296L136.934 146.982ZM140.219 152.752C140.98 154.985 141.372 157.453 141.372 160.171H145.372C145.372 157.065 144.924 154.156 144.005 151.462L140.219 152.752ZM141.372 160.209C141.424 162.963 141.034 165.431 140.232 167.635L143.992 169.002C144.982 166.279 145.432 163.315 145.372 160.133L141.372 160.209ZM140.219 167.674C139.454 169.918 138.369 171.85 136.975 173.493L140.025 176.081C141.767 174.028 143.09 171.648 144.005 168.964L140.219 167.674ZM136.975 173.493C135.602 175.111 133.94 176.359 131.967 177.247L133.609 180.895C136.116 179.766 138.262 178.159 140.025 176.081L136.975 173.493ZM131.95 177.255C130.068 178.123 127.87 178.583 125.312 178.583V182.583C128.354 182.583 131.14 182.034 133.626 180.887L131.95 177.255ZM126.404 175.443C129.088 175.443 131.553 174.799 133.741 173.473L131.667 170.053C130.159 170.966 128.424 171.443 126.404 171.443V175.443ZM133.718 173.487C135.938 172.181 137.678 170.373 138.914 168.097L135.398 166.189C134.506 167.833 133.278 169.105 131.69 170.039L133.718 173.487ZM138.904 168.114C140.208 165.768 140.836 163.13 140.836 160.255H136.836C136.836 162.532 136.344 164.486 135.408 166.172L138.904 168.114ZM140.836 160.255C140.836 157.333 140.212 154.684 138.893 152.375L135.42 154.359C136.34 155.97 136.836 157.913 136.836 160.255H140.836ZM138.925 152.433C137.693 150.1 135.953 148.254 133.718 146.939L131.69 150.387C133.263 151.312 134.491 152.602 135.387 154.3L138.925 152.433ZM133.741 146.953C131.553 145.626 129.088 144.983 126.404 144.983V148.983C128.424 148.983 130.159 149.459 131.667 150.373L133.741 146.953ZM126.404 144.983C123.719 144.983 121.237 145.626 119.006 146.939L121.034 150.387C122.611 149.459 124.385 148.983 126.404 148.983V144.983ZM119.006 146.939C116.781 148.248 115.021 150.082 113.736 152.396L117.232 154.338C118.187 152.62 119.451 151.318 121.034 150.387L119.006 146.939ZM113.726 152.413C112.477 154.714 111.888 157.35 111.888 160.255H115.888C115.888 157.896 116.363 155.94 117.242 154.321L113.726 152.413ZM111.888 160.255C111.888 163.113 112.481 165.737 113.715 168.076L117.253 166.209C116.359 164.517 115.888 162.548 115.888 160.255H111.888ZM113.748 168.135C115.037 170.391 116.795 172.186 119.006 173.487L121.034 170.039C119.437 169.1 118.172 167.815 117.221 166.151L113.748 168.135ZM119.028 173.499C121.295 174.795 123.766 175.443 126.404 175.443V171.443C124.45 171.443 122.665 170.971 121.012 170.026L119.028 173.499ZM142.868 178.583C141.795 178.583 141.458 178.372 141.429 178.349L138.931 181.473C140.022 182.346 141.477 182.583 142.868 182.583V178.583ZM141.429 178.349C141.429 178.349 141.421 178.343 141.406 178.323C141.391 178.303 141.366 178.263 141.336 178.196C141.273 178.056 141.201 177.815 141.161 177.434L137.183 177.852C137.324 179.188 137.786 180.557 138.931 181.473L141.429 178.349ZM141.172 177.643V125.059H137.172V177.643H141.172ZM141.172 125.059C141.172 124.295 141.224 123.737 141.301 123.351L137.379 122.567C137.232 123.301 137.172 124.143 137.172 125.059H141.172ZM141.256 123.534C141.265 123.504 141.272 123.487 141.276 123.48C141.28 123.473 141.281 123.472 141.28 123.473C141.278 123.475 141.278 123.475 141.282 123.472C141.286 123.468 141.297 123.46 141.319 123.447L139.377 119.951C138.41 120.488 137.74 121.333 137.424 122.384L141.256 123.534ZM141.377 123.414C141.488 123.347 141.878 123.195 142.784 123.195V119.195C141.562 119.195 140.328 119.379 139.319 119.984L141.377 123.414ZM142.784 123.195C143.218 123.195 143.533 123.23 143.751 123.277C143.972 123.324 144.04 123.372 144.027 123.363L146.245 120.035C145.247 119.369 143.981 119.195 142.784 119.195V123.195ZM144.242 123.488C144.28 123.507 144.302 123.522 144.312 123.529C144.321 123.536 144.322 123.538 144.318 123.534C144.314 123.529 144.31 123.524 144.308 123.519C144.305 123.515 144.308 123.519 144.312 123.534L148.144 122.384C147.805 121.256 147.045 120.417 146.03 119.91L144.242 123.488ZM144.312 123.534C144.409 123.856 144.48 124.324 144.48 124.975H148.48C148.48 124.058 148.383 123.182 148.144 122.384L144.312 123.534ZM144.48 124.975V176.719H148.48V124.975H144.48ZM144.48 176.719C144.48 177.364 144.411 177.882 144.298 178.293L148.158 179.345C148.382 178.524 148.48 177.642 148.48 176.719H144.48ZM144.312 178.244C144.303 178.274 144.296 178.291 144.292 178.298C144.288 178.305 144.287 178.306 144.288 178.305C144.29 178.303 144.29 178.303 144.286 178.306C144.282 178.309 144.271 178.318 144.249 178.331L146.191 181.827C147.158 181.29 147.828 180.445 148.144 179.394L144.312 178.244ZM144.111 178.415C144.124 178.406 144.056 178.454 143.835 178.501C143.617 178.548 143.302 178.583 142.868 178.583V182.583C144.065 182.583 145.331 182.408 146.329 181.743L144.111 178.415ZM166.901 179.491L166.108 181.327L166.115 181.33L166.123 181.333L166.901 179.491ZM160.265 175.123L158.871 176.557L158.882 176.568L158.893 176.578L160.265 175.123ZM155.561 152.191L157.397 152.984L157.4 152.976L157.403 152.969L155.561 152.191ZM160.013 145.555L161.427 146.969L160.013 145.555ZM166.565 141.103L167.357 142.939L167.367 142.935L167.377 142.931L166.565 141.103ZM185.045 142.195L184.016 143.91L184.034 143.921L184.052 143.931L185.045 142.195ZM192.521 149.587L194.244 148.572L192.521 149.587ZM193.613 168.655L195.44 169.467L195.443 169.46L195.447 169.452L193.613 168.655ZM189.077 175.207L190.47 176.642L189.077 175.207ZM182.525 179.575L183.282 181.426L183.3 181.419L183.317 181.411L182.525 179.575ZM181.181 172.015L180.173 170.287H180.173L181.181 172.015ZM186.053 167.143L184.333 166.121L186.053 167.143ZM186.137 153.115L184.388 154.086L184.398 154.105L184.409 154.123L186.137 153.115ZM181.433 148.411L182.404 146.663L181.433 148.411ZM167.825 148.495L166.817 146.767L166.806 146.774L166.796 146.78L167.825 148.495ZM163.037 153.283L161.33 152.24L161.319 152.257L161.309 152.275L163.037 153.283ZM163.121 167.311L161.401 168.333L161.408 168.343L161.414 168.354L163.121 167.311ZM167.993 172.099L166.985 173.826L167.013 173.843L167.042 173.858L167.993 172.099ZM174.797 179.087C172.319 179.087 169.952 178.608 167.678 177.648L166.123 181.333C168.89 182.502 171.786 183.087 174.797 183.087V179.087ZM167.693 177.655C165.444 176.683 163.428 175.357 161.637 173.668L158.893 176.578C161.021 178.585 163.429 180.17 166.108 181.327L167.693 177.655ZM161.658 173.688C159.883 171.964 158.489 169.964 157.472 167.675L153.817 169.299C155.04 172.05 156.726 174.474 158.871 176.557L161.658 173.688ZM157.472 167.675C156.474 165.429 155.965 162.965 155.965 160.255H151.965C151.965 163.481 152.575 166.504 153.817 169.299L157.472 167.675ZM155.965 160.255C155.965 157.592 156.45 155.177 157.397 152.984L153.724 151.398C152.543 154.133 151.965 157.094 151.965 160.255H155.965ZM157.403 152.969C158.368 150.683 159.708 148.688 161.427 146.969L158.598 144.141C156.509 146.23 154.881 148.659 153.718 151.413L157.403 152.969ZM161.427 146.969C163.153 145.243 165.126 143.903 167.357 142.939L165.772 139.267C163.075 140.431 160.68 142.059 158.598 144.141L161.427 146.969ZM167.377 142.931C169.632 141.928 172.042 141.423 174.629 141.423V137.423C171.503 137.423 168.537 138.038 165.752 139.275L167.377 142.931ZM174.629 141.423C178.159 141.423 181.27 142.263 184.016 143.91L186.074 140.48C182.659 138.431 178.827 137.423 174.629 137.423V141.423ZM184.052 143.931C186.884 145.549 189.125 147.764 190.797 150.602L194.244 148.572C192.22 145.138 189.477 142.425 186.037 140.458L184.052 143.931ZM190.797 150.602C192.45 153.407 193.293 156.58 193.293 160.171H197.293C197.293 155.922 196.287 152.039 194.244 148.572L190.797 150.602ZM193.293 160.171C193.293 163.003 192.779 165.556 191.778 167.857L195.447 169.452C196.686 166.601 197.293 163.499 197.293 160.171H193.293ZM191.785 167.843C190.765 170.139 189.397 172.109 187.684 173.772L190.47 176.642C192.564 174.609 194.221 172.211 195.44 169.467L191.785 167.843ZM187.684 173.772C185.956 175.449 183.976 176.77 181.732 177.739L183.317 181.411C186.001 180.252 188.389 178.661 190.47 176.642L187.684 173.772ZM181.767 177.724C179.546 178.633 177.227 179.087 174.797 179.087V183.087C177.742 183.087 180.575 182.533 183.282 181.426L181.767 177.724ZM174.629 175.779C177.332 175.779 179.864 175.098 182.188 173.742L180.173 170.287C178.465 171.283 176.629 171.779 174.629 171.779V175.779ZM182.188 173.742C184.507 172.39 186.372 170.519 187.772 168.165L184.333 166.121C183.269 167.911 181.886 169.288 180.173 170.287L182.188 173.742ZM187.772 168.165C189.204 165.756 189.901 163.045 189.901 160.087H185.901C185.901 162.393 185.365 164.386 184.333 166.121L187.772 168.165ZM189.901 160.087C189.901 157.147 189.24 154.467 187.864 152.107L184.409 154.123C185.385 155.795 185.901 157.763 185.901 160.087H189.901ZM187.885 152.144C186.583 149.801 184.746 147.964 182.404 146.663L180.461 150.159C182.151 151.098 183.45 152.397 184.388 154.086L187.885 152.144ZM182.404 146.663C180.057 145.359 177.42 144.731 174.545 144.731V148.731C176.821 148.731 178.776 149.223 180.461 150.159L182.404 146.663ZM174.545 144.731C171.747 144.731 169.156 145.403 166.817 146.767L168.832 150.222C170.525 149.235 172.414 148.731 174.545 148.731V144.731ZM166.796 146.78C164.549 148.128 162.724 149.958 161.33 152.24L164.743 154.326C165.813 152.576 167.18 151.214 168.854 150.21L166.796 146.78ZM161.309 152.275C159.936 154.628 159.273 157.279 159.273 160.171H163.273C163.273 157.911 163.785 155.97 164.764 154.291L161.309 152.275ZM159.273 160.171C159.273 163.176 159.965 165.917 161.401 168.333L164.84 166.289C163.812 164.561 163.273 162.542 163.273 160.171H159.273ZM161.414 168.354C162.816 170.649 164.679 172.481 166.985 173.826L169 170.371C167.274 169.364 165.889 168.005 164.827 166.268L161.414 168.354ZM167.042 173.858C169.405 175.136 171.944 175.779 174.629 175.779V171.779C172.609 171.779 170.724 171.302 168.944 170.34L167.042 173.858ZM214.606 179.827L214.064 181.752L214.072 181.754L214.08 181.756L214.606 179.827ZM210.154 177.475L208.812 178.958L210.154 177.475ZM207.634 173.359L205.713 173.917L205.716 173.925L205.718 173.934L207.634 173.359ZM207.13 127.831L209.046 128.406V128.406L207.13 127.831ZM208.138 126.571L209.109 128.319L209.18 128.28L209.247 128.235L208.138 126.571ZM212.926 126.571L211.897 128.286L211.963 128.325L212.032 128.36L212.926 126.571ZM214.018 127.831L212.102 128.406L212.111 128.435L212.121 128.463L214.018 127.831ZM214.606 170.503L212.666 170.988L212.684 171.062L212.709 171.135L214.606 170.503ZM215.782 172.435L214.453 173.93L214.492 173.964L214.533 173.997L215.782 172.435ZM217.966 173.275L218.214 171.29L217.966 173.275ZM224.686 174.703L226.434 173.732L224.686 174.703ZM224.602 179.407L222.887 178.378L222.87 178.407L222.854 178.436L224.602 179.407ZM223.258 180.331L222.9 178.363L222.79 178.383L222.683 178.415L223.258 180.331ZM202.51 140.851L202.531 138.851L202.52 138.851H202.51V140.851ZM210.574 140.935L210.553 142.935L210.578 142.935L210.603 142.935L210.574 140.935ZM222.25 140.767V138.767H222.236L222.221 138.767L222.25 140.767ZM224.266 141.019L223.691 142.935L223.781 142.962L223.874 142.98L224.266 141.019ZM225.526 142.027L223.737 142.921L223.793 143.033L223.862 143.136L225.526 142.027ZM225.61 146.815L227.358 147.786L227.379 147.748L227.399 147.709L225.61 146.815ZM224.35 147.823L223.775 145.907L224.35 147.823ZM222.334 148.075L222.305 150.075L222.319 150.075H222.334V148.075ZM210.826 147.907L210.855 145.907L210.831 145.907L210.806 145.907L210.826 147.907ZM202.342 147.991V149.991H202.352L202.362 149.991L202.342 147.991ZM199.906 147.151L198.268 148.298L198.304 148.35L198.344 148.4L199.906 147.151ZM200.074 141.691L201.561 143.029L200.074 141.691ZM221.326 178.583C218.811 178.583 216.758 178.341 215.132 177.897L214.08 181.756C216.15 182.321 218.577 182.583 221.326 182.583V178.583ZM215.147 177.902C213.601 177.467 212.406 176.815 211.496 175.992L208.812 178.958C210.254 180.262 212.027 181.179 214.064 181.752L215.147 177.902ZM211.496 175.992C210.618 175.198 209.96 174.153 209.55 172.784L205.718 173.934C206.316 175.925 207.338 177.624 208.812 178.958L211.496 175.992ZM209.555 172.801C209.119 171.302 208.878 169.374 208.878 166.975H204.878C204.878 169.615 205.141 171.944 205.713 173.917L209.555 172.801ZM208.878 166.975V129.847H204.878V166.975H208.878ZM208.878 129.847C208.878 129.196 208.949 128.728 209.046 128.406L205.214 127.256C204.975 128.054 204.878 128.93 204.878 129.847H208.878ZM209.046 128.406C209.055 128.376 209.062 128.359 209.066 128.352C209.07 128.345 209.071 128.344 209.07 128.345C209.068 128.347 209.068 128.347 209.072 128.344C209.076 128.34 209.087 128.332 209.109 128.319L207.167 124.823C206.2 125.36 205.53 126.205 205.214 127.256L209.046 128.406ZM209.247 128.235C209.234 128.244 209.302 128.196 209.523 128.149C209.741 128.102 210.056 128.067 210.49 128.067V124.067C209.293 124.067 208.027 124.241 207.029 124.907L209.247 128.235ZM210.49 128.067C211.396 128.067 211.786 128.219 211.897 128.286L213.955 124.856C212.946 124.251 211.712 124.067 210.49 124.067V128.067ZM212.032 128.36C212.07 128.379 212.092 128.394 212.102 128.401C212.111 128.408 212.111 128.41 212.108 128.406C212.104 128.401 212.1 128.396 212.098 128.391C212.095 128.387 212.098 128.391 212.102 128.406L215.934 127.256C215.595 126.128 214.835 125.289 213.82 124.782L212.032 128.36ZM212.121 128.463C212.197 128.691 212.27 129.102 212.27 129.763H216.27C216.27 128.856 216.175 127.979 215.915 127.198L212.121 128.463ZM212.27 129.763V166.975H216.27V129.763H212.27ZM212.27 166.975C212.27 168.512 212.386 169.87 212.666 170.988L216.546 170.018C216.378 169.344 216.27 168.35 216.27 166.975H212.27ZM212.709 171.135C213.066 172.207 213.618 173.187 214.453 173.93L217.111 170.94C216.938 170.787 216.706 170.479 216.503 169.87L212.709 171.135ZM214.533 173.997C215.447 174.728 216.55 175.113 217.718 175.259L218.214 171.29C217.59 171.212 217.237 171.038 217.031 170.873L214.533 173.997ZM217.718 175.259C218.723 175.385 219.903 175.443 221.242 175.443V171.443C220.005 171.443 219.001 171.389 218.214 171.29L217.718 175.259ZM221.242 175.443C222.035 175.443 222.549 175.52 222.851 175.611L224.001 171.779C223.183 171.534 222.241 171.443 221.242 171.443V175.443ZM222.851 175.611C222.881 175.62 222.898 175.627 222.905 175.631C222.912 175.635 222.913 175.636 222.912 175.635C222.91 175.633 222.91 175.633 222.913 175.637C222.916 175.641 222.925 175.652 222.938 175.674L226.434 173.732C225.897 172.765 225.052 172.095 224.001 171.779L222.851 175.611ZM222.938 175.674C222.971 175.735 223.106 176.083 223.106 176.971H227.106C227.106 175.843 226.961 174.679 226.434 173.732L222.938 175.674ZM223.106 176.971C223.106 177.877 222.954 178.267 222.887 178.378L226.317 180.436C226.922 179.427 227.106 178.193 227.106 176.971H223.106ZM222.854 178.436C222.852 178.439 222.857 178.429 222.871 178.413C222.886 178.397 222.904 178.381 222.923 178.368C222.932 178.362 222.94 178.357 222.945 178.354C222.951 178.351 222.954 178.35 222.954 178.35C222.954 178.35 222.937 178.356 222.9 178.363L223.616 182.299C224.763 182.09 225.752 181.455 226.35 180.378L222.854 178.436ZM222.683 178.415C222.349 178.516 221.905 178.583 221.326 178.583V182.583C222.203 182.583 223.047 182.482 223.833 182.247L222.683 178.415ZM202.489 142.851L210.553 142.935L210.595 138.935L202.531 138.851L202.489 142.851ZM210.603 142.935L222.279 142.767L222.221 138.767L210.545 138.935L210.603 142.935ZM222.25 142.767C222.901 142.767 223.369 142.838 223.691 142.935L224.841 139.103C224.043 138.864 223.167 138.767 222.25 138.767V142.767ZM223.874 142.98C223.871 142.98 223.854 142.976 223.828 142.964C223.802 142.952 223.775 142.935 223.752 142.917C223.701 142.877 223.705 142.858 223.737 142.921L227.315 141.132C226.789 140.081 225.887 139.304 224.658 139.058L223.874 142.98ZM223.862 143.136C223.853 143.123 223.901 143.191 223.948 143.412C223.995 143.63 224.03 143.945 224.03 144.379H228.03C228.03 143.182 227.856 141.916 227.19 140.918L223.862 143.136ZM224.03 144.379C224.03 145.321 223.897 145.768 223.821 145.92L227.399 147.709C227.883 146.741 228.03 145.564 228.03 144.379H224.03ZM223.862 145.844C223.849 145.866 223.84 145.877 223.837 145.881C223.834 145.885 223.834 145.884 223.836 145.883C223.837 145.882 223.836 145.883 223.829 145.887C223.822 145.891 223.805 145.898 223.775 145.907L224.925 149.739C225.976 149.423 226.821 148.753 227.358 147.786L223.862 145.844ZM223.775 145.907C223.453 146.004 222.985 146.075 222.334 146.075V150.075C223.251 150.075 224.127 149.978 224.925 149.739L223.775 145.907ZM222.363 146.075L210.855 145.907L210.797 149.907L222.305 150.075L222.363 146.075ZM210.806 145.907L202.322 145.991L202.362 149.991L210.846 149.907L210.806 145.907ZM202.342 145.991C201.9 145.991 201.638 145.937 201.503 145.89C201.383 145.849 201.412 145.832 201.468 145.902L198.344 148.4C199.36 149.67 200.942 149.991 202.342 149.991V145.991ZM201.544 146.004C201.549 146.011 201.484 145.916 201.421 145.623C201.361 145.336 201.318 144.93 201.318 144.379H197.318C197.318 145.767 197.51 147.215 198.268 148.298L201.544 146.004ZM201.318 144.379C201.318 143.346 201.542 143.05 201.561 143.029L198.587 140.353C197.598 141.452 197.318 142.948 197.318 144.379H201.318ZM201.561 143.029C201.562 143.028 201.568 143.021 201.586 143.009C201.605 142.997 201.644 142.975 201.713 142.952C201.856 142.902 202.108 142.851 202.51 142.851V138.851C201.101 138.851 199.624 139.202 198.587 140.353L201.561 143.029ZM243.08 180.583L243.458 178.619L243.08 180.583ZM238.796 179.407L238.027 181.253L238.072 181.272L238.119 181.289L238.796 179.407ZM235.184 177.475L234.013 179.096L234.034 179.111L234.055 179.126L235.184 177.475ZM232.916 175.039L231.127 175.933L231.149 175.977L231.173 176.019L232.916 175.039ZM232.412 173.527L230.424 173.748L230.426 173.761L230.427 173.775L232.412 173.527ZM232.664 172.099L230.875 171.204L232.664 172.099ZM233.672 170.755L235.086 172.169L235.15 172.105L235.208 172.035L233.672 170.755ZM235.352 169.831L235.153 171.821L235.252 171.831H235.352V169.831ZM237.452 170.923L236.142 172.434L236.254 172.531L236.378 172.61L237.452 170.923ZM239.636 172.267L238.607 173.982L238.65 174.008L238.695 174.032L239.636 172.267ZM242.24 173.527L241.438 175.359L241.488 175.381L241.538 175.4L242.24 173.527ZM244.928 174.451L244.331 176.36L244.4 176.381L244.47 176.398L244.928 174.451ZM253.916 173.359L254.954 175.068L254.976 175.055L254.998 175.041L253.916 173.359ZM255.68 166.975L253.952 167.983L255.68 166.975ZM254.084 165.295L252.884 166.895L252.928 166.928L252.975 166.959L254.084 165.295ZM251.816 164.035L252.559 162.178L251.816 164.035ZM248.96 163.111L248.328 165.008L248.389 165.029L248.451 165.045L248.96 163.111ZM245.936 162.187L246.471 160.26L246.455 160.255L246.438 160.251L245.936 162.187ZM241.484 160.843L240.83 162.733L241.484 160.843ZM237.536 158.911L236.374 160.538L236.4 160.557L236.427 160.575L237.536 158.911ZM234.68 155.803L232.939 156.787L232.948 156.804L232.958 156.82L234.68 155.803ZM235.352 144.967L233.714 143.82L235.352 144.967ZM240.308 141.103L241.084 142.946L241.105 142.938L241.125 142.929L240.308 141.103ZM251.228 139.927L251.54 137.951L251.228 139.927ZM254.252 140.767L253.491 142.616L253.554 142.643L253.62 142.664L254.252 140.767ZM257.108 142.027L256.128 143.77L256.17 143.794L256.214 143.816L257.108 142.027ZM259.712 143.707L258.463 145.269L258.53 145.323L258.603 145.371L259.712 143.707ZM261.308 145.891L263.303 145.748V145.748L261.308 145.891ZM260.384 148.327L258.822 147.078L258.779 147.132L258.74 147.188L260.384 148.327ZM258.704 149.755L259.23 151.684L259.31 151.663L259.388 151.635L258.704 149.755ZM256.856 149.251L258.122 147.703L258.09 147.676L258.056 147.651L256.856 149.251ZM254 147.487L253.106 149.276L254 147.487ZM250.892 146.227L251.494 144.32L250.892 146.227ZM243.836 146.395L244.527 148.272L244.553 148.262L244.579 148.252L243.836 146.395ZM241.316 148.243L239.703 147.06L239.696 147.07L239.689 147.08L241.316 148.243ZM241.148 153.115L239.586 154.364L239.623 154.41L239.661 154.453L241.148 153.115ZM242.996 154.543L242.048 156.304L242.074 156.318L242.102 156.332L242.996 154.543ZM245.684 155.635L245.052 157.532L245.113 157.553L245.175 157.569L245.684 155.635ZM248.96 156.475L248.475 158.415L248.483 158.417L248.491 158.419L248.96 156.475ZM253.916 157.903L253.284 159.8L253.321 159.813L253.358 159.824L253.916 157.903ZM258.536 160.003L257.427 161.667L257.466 161.693L257.507 161.718L258.536 160.003ZM261.896 163.447L260.164 164.446L260.187 164.486L260.211 164.525L261.896 163.447ZM247.28 179.003C246.075 179.003 244.802 178.877 243.458 178.619L242.702 182.547C244.27 182.848 245.797 183.003 247.28 183.003V179.003ZM243.458 178.619C242.104 178.359 240.776 177.994 239.473 177.525L238.119 181.289C239.616 181.828 241.144 182.247 242.702 182.547L243.458 178.619ZM239.565 177.561C238.332 177.047 237.251 176.466 236.313 175.824L234.055 179.126C235.245 179.94 236.572 180.647 238.027 181.253L239.565 177.561ZM236.355 175.854C235.534 175.26 234.995 174.655 234.659 174.058L231.173 176.019C231.846 177.215 232.818 178.234 234.013 179.096L236.355 175.854ZM234.705 174.144C234.49 173.715 234.416 173.433 234.397 173.279L230.427 173.775C230.52 174.516 230.782 175.243 231.127 175.933L234.705 174.144ZM234.4 173.306C234.386 173.18 234.404 173.092 234.453 172.993L230.875 171.204C230.477 172.002 230.326 172.866 230.424 173.748L234.4 173.306ZM234.453 172.993C234.559 172.781 234.752 172.503 235.086 172.169L232.258 169.341C231.696 169.902 231.217 170.521 230.875 171.204L234.453 172.993ZM235.208 172.035C235.293 171.934 235.36 171.867 235.409 171.824C235.458 171.782 235.481 171.77 235.476 171.772C235.47 171.776 235.434 171.794 235.371 171.808C235.306 171.823 235.231 171.829 235.153 171.821L235.551 167.841C234.024 167.688 232.875 168.587 232.136 169.475L235.208 172.035ZM235.352 171.831C235.207 171.831 235.2 171.788 235.374 171.878C235.542 171.965 235.796 172.135 236.142 172.434L238.762 169.412C237.864 168.634 236.684 167.831 235.352 167.831V171.831ZM236.378 172.61C237.013 173.014 237.757 173.472 238.607 173.982L240.665 170.552C239.835 170.054 239.123 169.616 238.526 169.236L236.378 172.61ZM238.695 174.032C239.582 174.505 240.496 174.947 241.438 175.359L243.042 171.695C242.192 171.323 241.37 170.925 240.577 170.502L238.695 174.032ZM241.538 175.4C242.468 175.748 243.399 176.069 244.331 176.36L245.525 172.542C244.665 172.273 243.804 171.977 242.942 171.654L241.538 175.4ZM244.47 176.398C245.559 176.654 246.636 176.787 247.7 176.787V172.787C246.972 172.787 246.202 172.696 245.386 172.504L244.47 176.398ZM247.7 176.787C250.501 176.787 252.971 176.272 254.954 175.068L252.878 171.649C251.725 172.35 250.051 172.787 247.7 172.787V176.787ZM254.998 175.041C257.039 173.729 258.268 171.826 258.268 169.411H254.268C254.268 170.244 253.929 170.973 252.835 171.677L254.998 175.041ZM258.268 169.411C258.268 168.184 258.014 167.007 257.408 165.967L253.952 167.983C254.13 168.287 254.268 168.734 254.268 169.411H258.268ZM257.408 165.967C256.856 165.022 256.109 164.241 255.193 163.631L252.975 166.959C253.403 167.245 253.72 167.584 253.952 167.983L257.408 165.967ZM255.284 163.695C254.461 163.078 253.549 162.574 252.559 162.178L251.073 165.892C251.763 166.168 252.363 166.504 252.884 166.895L255.284 163.695ZM252.559 162.178C251.628 161.806 250.596 161.473 249.469 161.177L248.451 165.045C249.452 165.308 250.324 165.592 251.073 165.892L252.559 162.178ZM249.592 161.214C248.553 160.867 247.512 160.549 246.471 160.26L245.401 164.114C246.376 164.385 247.351 164.683 248.328 165.008L249.592 161.214ZM246.438 160.251C244.977 159.872 243.543 159.439 242.138 158.953L240.83 162.733C242.337 163.254 243.871 163.718 245.434 164.123L246.438 160.251ZM242.138 158.953C240.829 158.5 239.668 157.928 238.645 157.247L236.427 160.575C237.756 161.461 239.227 162.178 240.83 162.733L242.138 158.953ZM238.699 157.283C237.747 156.604 236.987 155.775 236.402 154.785L232.958 156.82C233.829 158.295 234.973 159.538 236.374 160.538L238.699 157.283ZM236.421 154.819C235.909 153.913 235.588 152.654 235.588 150.931H231.588C231.588 153.127 231.995 155.117 232.939 156.787L236.421 154.819ZM235.588 150.931C235.588 148.994 236.078 147.418 236.99 146.114L233.714 143.82C232.275 145.876 231.588 148.276 231.588 150.931H235.588ZM236.99 146.114C237.924 144.78 239.258 143.715 241.084 142.946L239.532 139.26C237.102 140.283 235.132 141.794 233.714 143.82L236.99 146.114ZM241.125 142.929C242.945 142.114 245.148 141.675 247.784 141.675V137.675C244.708 137.675 241.927 138.188 239.491 139.277L241.125 142.929ZM247.784 141.675C248.926 141.675 249.969 141.753 250.916 141.902L251.54 137.951C250.359 137.765 249.106 137.675 247.784 137.675V141.675ZM250.916 141.902C251.833 142.047 252.689 142.286 253.491 142.616L255.014 138.918C253.911 138.463 252.751 138.143 251.54 137.951L250.916 141.902ZM253.62 142.664C254.511 142.961 255.346 143.33 256.128 143.77L258.089 140.284C257.078 139.715 256.009 139.244 254.884 138.87L253.62 142.664ZM256.214 143.816C256.975 144.196 257.725 144.678 258.463 145.269L260.961 142.145C260.019 141.392 259.033 140.754 258.002 140.238L256.214 143.816ZM258.603 145.371C258.974 145.619 259.164 145.816 259.252 145.937C259.33 146.043 259.316 146.069 259.313 146.033L263.303 145.748C263.183 144.073 262.06 142.869 260.821 142.043L258.603 145.371ZM259.313 146.033C259.322 146.155 259.297 146.484 258.822 147.078L261.946 149.576C262.815 148.49 263.406 147.194 263.303 145.748L259.313 146.033ZM258.74 147.188C258.39 147.693 258.132 147.835 258.021 147.875L259.388 151.635C260.508 151.227 261.37 150.417 262.028 149.465L258.74 147.188ZM258.178 147.825C258.189 147.822 258.212 147.818 258.242 147.818C258.272 147.818 258.295 147.822 258.306 147.825C258.327 147.831 258.265 147.82 258.122 147.703L255.59 150.799C256.568 151.599 257.836 152.065 259.23 151.684L258.178 147.825ZM258.056 147.651C257.063 146.906 256.009 146.255 254.894 145.698L253.106 149.276C254.007 149.726 254.857 150.251 255.656 150.851L258.056 147.651ZM254.894 145.698C253.793 145.147 252.66 144.688 251.494 144.32L250.29 148.134C251.252 148.438 252.191 148.818 253.106 149.276L254.894 145.698ZM251.494 144.32C250.235 143.922 248.94 143.723 247.616 143.723V147.723C248.532 147.723 249.421 147.86 250.29 148.134L251.494 144.32ZM247.616 143.723C246.002 143.723 244.484 143.982 243.093 144.538L244.579 148.252C245.428 147.912 246.43 147.723 247.616 147.723V143.723ZM243.145 144.518C241.746 145.033 240.572 145.875 239.703 147.06L242.929 149.426C243.292 148.931 243.798 148.54 244.527 148.272L243.145 144.518ZM239.689 147.08C238.875 148.22 238.476 149.527 238.476 150.931H242.476C242.476 150.319 242.637 149.834 242.943 149.405L239.689 147.08ZM238.476 150.931C238.476 152.165 238.79 153.369 239.586 154.364L242.71 151.866C242.61 151.741 242.476 151.489 242.476 150.931H238.476ZM239.661 154.453C240.334 155.2 241.137 155.813 242.048 156.304L243.944 152.782C243.399 152.488 242.971 152.15 242.635 151.777L239.661 154.453ZM242.102 156.332C242.986 156.774 243.972 157.172 245.052 157.532L246.316 153.738C245.38 153.425 244.574 153.096 243.89 152.754L242.102 156.332ZM245.175 157.569C246.247 157.851 247.347 158.133 248.475 158.415L249.445 154.535C248.333 154.257 247.249 153.979 246.193 153.701L245.175 157.569ZM248.491 158.419C250.057 158.797 251.654 159.257 253.284 159.8L254.548 156.006C252.818 155.429 251.111 154.937 249.429 154.531L248.491 158.419ZM253.358 159.824C254.922 160.277 256.271 160.897 257.427 161.667L259.645 158.339C258.113 157.317 256.383 156.536 254.474 155.982L253.358 159.824ZM257.507 161.718C258.607 162.378 259.488 163.276 260.164 164.446L263.628 162.447C262.624 160.706 261.265 159.308 259.565 158.288L257.507 161.718ZM260.211 164.525C260.833 165.496 261.24 166.954 261.24 169.075H265.24C265.24 166.492 264.751 164.198 263.581 162.369L260.211 164.525ZM261.24 169.075C261.24 172.151 260.074 174.456 257.692 176.196L260.052 179.426C263.494 176.91 265.24 173.39 265.24 169.075H261.24ZM257.692 176.196C255.221 178.002 251.813 179.003 247.28 179.003V183.003C252.38 183.003 256.699 181.876 260.052 179.426L257.692 176.196Z" fill="#23160F" mask="url(#path-8-outside-2_364_2)"/>
</svg>
